<svg width="1024" height="1024" viewBox="0 0 1024 1024" fill="none" xmlns="http://www.w3.org/2000/svg">
<path fill-rule="evenodd" clip-rule="evenodd" d="M512 16C238.067 16 16 238.067 16 512C16 785.933 238.067 1008 512 1008C785.933 1008 1008 785.933 1008 512C1008 238.067 785.933 16 512 16ZM723.793 604.249C715.556 608.387 702.45 610.456 684.477 610.456C666.504 610.456 650.403 608.575 636.175 604.814C631.068 603.427 626.216 602.015 621.618 600.578V506.874C628.461 512.639 636.309 517.827 645.161 522.438C655.646 527.328 667.066 532.03 679.422 536.543C699.642 544.066 714.058 551.025 722.67 557.419C731.657 563.814 736.15 571.901 736.15 581.681C736.15 592.213 732.031 599.736 723.793 604.249ZM604.302 403.914C609.165 395.141 615.857 387.443 624.38 380.82C644.225 365.022 671.185 357.123 705.259 357.123C722.483 357.123 738.958 358.815 754.685 362.201C770.411 365.21 782.206 368.219 790.069 371.228L777.713 426.521C770.224 423.136 760.676 420.127 749.068 417.494C737.46 414.485 723.981 412.98 708.629 412.98C694.774 412.98 683.541 415.425 674.929 420.315C666.317 424.829 662.011 431.975 662.011 441.755C662.011 446.645 662.76 450.971 664.258 454.732C666.13 458.493 669.125 462.067 673.244 465.452C677.363 468.461 682.792 471.659 689.532 475.044C696.272 478.053 704.51 481.25 714.245 484.636C730.346 490.654 744.013 496.672 755.246 502.69C766.479 508.333 775.653 514.915 782.768 522.438C790.256 529.585 795.686 537.86 799.056 547.264C802.426 556.667 804.111 567.951 804.111 581.117C804.111 609.327 793.626 630.768 772.658 645.437C752.064 659.731 722.483 666.878 683.916 666.878C658.079 666.878 637.298 664.621 621.572 660.107C620.851 659.917 620.14 659.729 619.439 659.543H553.658V504.383C553.658 473.539 549.913 451.347 542.424 437.806C534.936 423.888 520.52 416.93 499.177 416.93C488.318 416.93 478.021 418.81 468.286 422.572C458.55 425.957 451.249 429.342 446.381 432.728C449.376 442.131 451.436 452.099 452.559 462.631C453.682 473.163 454.244 484.447 454.244 496.484V659.543H386.283V504.383C386.283 473.539 382.352 451.347 374.489 437.806C367 423.888 352.771 416.93 331.802 416.93C324.314 416.93 316.076 417.494 307.09 418.622C298.103 419.751 291.363 420.691 286.87 421.443V659.543H218.909V374.049C232.014 370.288 249.051 366.714 270.02 363.329C291.363 359.944 313.829 358.251 337.419 358.251C357.639 358.251 374.114 360.884 386.845 366.15C399.95 371.416 410.809 378.375 419.421 387.026C423.54 384.017 428.782 380.82 435.148 377.434C441.513 374.049 448.627 371.04 456.491 368.407C464.354 365.398 472.592 362.953 481.204 361.072C490.19 359.191 499.177 358.251 508.163 358.251C531.004 358.251 549.726 361.636 564.329 368.407C579.307 374.801 590.914 384.017 599.152 396.053C600.998 398.553 602.715 401.173 604.302 403.914Z" fill="#20BF6B"/>
</svg>
