<svg width="1024" height="1024" viewBox="0 0 1024 1024" fill="none" xmlns="http://www.w3.org/2000/svg"><path fill-rule="evenodd" clip-rule="evenodd" d="M512 16C238.067 16 16 238.067 16 512s222.067 496 496 496 496-222.067 496-496S785.933 16 512 16zm211.793 588.249c-8.237 4.138-21.343 6.207-39.316 6.207-17.973 0-34.074-1.881-48.302-5.642a402.58 402.58 0 01-14.557-4.236v-93.704c6.843 5.765 14.691 10.953 23.543 15.564 10.485 4.89 21.905 9.592 34.261 14.105 20.22 7.523 34.636 14.482 43.248 20.876 8.987 6.395 13.48 14.482 13.48 24.262 0 10.532-4.119 18.055-12.357 22.568zM604.302 403.914c4.863-8.773 11.555-16.471 20.078-23.094 19.845-15.798 46.805-23.697 80.879-23.697 17.224 0 33.699 1.692 49.426 5.078 15.726 3.009 27.521 6.018 35.384 9.027l-12.356 55.293c-7.489-3.385-17.037-6.394-28.645-9.027-11.608-3.009-25.087-4.514-40.439-4.514-13.855 0-25.088 2.445-33.7 7.335-8.612 4.514-12.918 11.66-12.918 21.44 0 4.89.749 9.216 2.247 12.977 1.872 3.761 4.867 7.335 8.986 10.72 4.119 3.009 9.548 6.207 16.288 9.592 6.74 3.009 14.978 6.206 24.713 9.592 16.101 6.018 29.768 12.036 41.001 18.054 11.233 5.643 20.407 12.225 27.522 19.748 7.488 7.147 12.918 15.422 16.288 24.826 3.37 9.403 5.055 20.687 5.055 33.853 0 28.21-10.485 49.651-31.453 64.32-20.594 14.294-50.175 21.441-88.742 21.441-25.837 0-46.618-2.257-62.344-6.771l-2.133-.564h-65.781v-155.16c0-30.844-3.745-53.036-11.234-66.577-7.488-13.918-21.904-20.876-43.247-20.876-10.859 0-21.156 1.88-30.891 5.642-9.736 3.385-17.037 6.77-21.905 10.156 2.995 9.403 5.055 19.371 6.178 29.903 1.123 10.532 1.685 21.816 1.685 33.853v163.059h-67.961v-155.16c0-30.844-3.931-53.036-11.794-66.577-7.489-13.918-21.718-20.876-42.687-20.876-7.488 0-15.726.564-24.712 1.692-8.987 1.129-15.727 2.069-20.22 2.821v238.1h-67.961V374.049c13.105-3.761 30.142-7.335 51.111-10.72 21.343-3.385 43.809-5.078 67.399-5.078 20.22 0 36.695 2.633 49.426 7.899 13.105 5.266 23.964 12.225 32.576 20.876 4.119-3.009 9.361-6.206 15.727-9.592 6.365-3.385 13.479-6.394 21.343-9.027 7.863-3.009 16.101-5.454 24.713-7.335 8.986-1.881 17.973-2.821 26.959-2.821 22.841 0 41.563 3.385 56.166 10.156 14.978 6.394 26.585 15.61 34.823 27.646a84.485 84.485 0 015.15 7.861z" fill="currentColor"/></svg>