<svg width="1024" height="1024" viewBox="0 0 1024 1024" fill="none" xmlns="http://www.w3.org/2000/svg"><path d="M814.663 684.648c31.449 0 54.382-3.623 68.796-10.869 14.415-7.905 21.622-21.079 21.622-39.523 0-17.127-7.863-31.29-23.588-42.488-15.069-11.198-40.295-23.384-75.676-36.559-21.621-7.904-41.605-16.138-59.951-24.702-17.69-9.222-33.087-19.761-46.191-31.618s-23.588-26.02-31.45-42.488c-7.207-17.126-10.811-37.876-10.811-62.249 0-47.427 17.363-84.645 52.089-111.653C744.228 254.833 791.403 241 851.026 241c30.14 0 58.969 2.964 86.487 8.893 27.519 5.269 48.158 10.539 61.917 15.809l-21.622 96.832c-13.104-5.929-29.812-11.198-50.123-15.81-20.311-5.269-43.898-7.904-70.762-7.904-24.242 0-43.898 4.282-58.968 12.845-15.07 7.905-22.604 20.42-22.604 37.547 0 8.563 1.31 16.139 3.931 22.726 3.276 6.587 8.517 12.845 15.725 18.773 7.207 5.27 16.707 10.869 28.501 16.798 11.794 5.269 26.208 10.868 43.243 16.797 28.174 10.539 52.089 21.079 71.745 31.618 19.656 9.881 35.709 21.409 48.157 34.583 13.105 12.516 22.607 27.008 28.497 43.476 5.9 16.468 8.85 36.229 8.85 59.285 0 49.404-18.35 86.951-55.037 112.641-36.036 25.031-87.797 37.547-155.283 37.547-45.209 0-81.573-3.953-109.091-11.857-27.519-7.246-46.847-13.175-57.986-17.786l20.639-99.796c17.691 7.246 38.657 14.163 62.9 20.75 24.897 6.587 53.071 9.881 84.521 9.881z" fill="currentColor"/><path d="M292.876 498.889c0-54.015-6.88-92.88-20.639-116.594-13.104-24.372-38.002-36.559-74.693-36.559-13.104 0-27.519.989-43.244 2.965-15.725 1.976-27.518 3.623-35.381 4.94v416.97H0V270.642c22.932-6.587 52.744-12.845 89.435-18.773 37.347-5.929 76.659-8.893 117.937-8.893 35.381 0 64.21 4.611 86.486 13.833 22.933 9.222 41.933 21.409 57.003 36.559 7.207-5.27 16.38-10.869 27.519-16.797 11.138-5.929 23.587-11.198 37.346-15.809 13.759-5.27 28.174-9.552 43.244-12.845 15.724-3.294 31.449-4.941 47.174-4.941 39.968 0 72.728 5.929 98.281 17.786 26.208 11.198 46.519 27.336 60.933 48.415 15.07 20.421 25.226 45.452 30.467 75.095 5.897 28.983 8.846 60.931 8.846 95.843v290.496h-118.92V498.889c0-54.015-6.552-92.88-19.656-116.594-13.104-24.372-38.329-36.559-75.676-36.559-19.001 0-37.019 3.294-54.054 9.881-17.035 5.929-29.812 11.857-38.329 17.786 5.241 16.468 8.845 33.924 10.811 52.368 1.965 18.444 2.948 38.206 2.948 59.285v285.555H292.876V498.889z" fill="currentColor"/></svg>