<svg width="1024" height="1024" viewBox="0 0 1024 1024" fill="none" xmlns="http://www.w3.org/2000/svg"><path d="M738.997 641.626c23.587 0 40.786-2.717 51.597-8.149 10.811-5.927 16.216-15.804 16.216-29.633 0-12.841-5.896-23.459-17.69-31.855-11.302-8.396-30.221-17.533-56.757-27.41-16.216-5.927-31.204-12.1-44.963-18.52-13.268-6.915-24.816-14.817-34.644-23.707-9.828-8.889-17.69-19.508-23.587-31.855-5.406-12.84-8.109-28.397-8.109-46.671 0-35.559 13.023-63.463 39.067-83.712C686.171 319.371 721.552 309 766.27 309c22.604 0 44.226 2.222 64.865 6.667 20.639 3.951 36.118 7.902 46.437 11.853l-16.216 72.6c-9.828-4.445-22.359-8.396-37.592-11.853-15.234-3.951-32.924-5.926-53.072-5.926-18.181 0-32.923 3.21-44.226 9.63-11.302 5.927-16.953 15.31-16.953 28.151 0 6.42.983 12.1 2.948 17.039 2.457 4.939 6.389 9.63 11.794 14.075 5.405 3.951 12.531 8.149 21.376 12.594 8.845 3.951 19.656 8.149 32.432 12.594 21.131 7.902 39.067 15.804 53.809 23.706 14.742 7.408 26.781 16.051 36.118 25.929 9.828 9.383 16.953 20.248 21.376 32.595 4.423 12.347 6.634 27.164 6.634 44.449 0 37.041-13.759 65.192-41.278 84.453-27.027 18.767-65.848 28.151-116.462 28.151-33.907 0-61.18-2.963-81.819-8.89-20.638-5.432-35.135-9.877-43.489-13.334l15.48-74.823c13.267 5.433 28.992 10.619 47.174 15.557 18.673 4.939 39.804 7.409 63.391 7.409z" fill="#20BF6B"/><path d="M347.657 502.352c0-40.497-5.16-69.636-15.479-87.416-9.828-18.273-28.502-27.41-56.02-27.41-9.828 0-20.639.741-32.433 2.223-11.793 1.481-20.639 2.716-26.536 3.704v312.623H128V331.224c17.199-4.938 39.558-9.63 67.076-14.075 28.01-4.445 57.494-6.667 88.453-6.667 26.535 0 48.157 3.457 64.865 10.371 17.199 6.914 31.45 16.051 42.752 27.41 5.405-3.951 12.285-8.149 20.639-12.594s17.69-8.396 28.01-11.853c10.319-3.951 21.13-7.161 32.432-9.63 11.794-2.47 23.587-3.704 35.381-3.704 29.976 0 54.546 4.444 73.71 13.334 19.656 8.396 34.89 20.496 45.701 36.3 11.302 15.31 18.919 34.078 22.85 56.302 4.423 21.731 6.634 45.684 6.634 71.859v217.799h-89.19V502.352c0-40.497-4.914-69.636-14.742-87.416-9.828-18.273-28.747-27.41-56.757-27.41-14.25 0-27.764 2.47-40.54 7.408-12.777 4.445-22.359 8.89-28.747 13.335 3.931 12.347 6.634 25.435 8.108 39.263 1.474 13.829 2.211 28.645 2.211 44.449v214.095h-89.189V502.352z" fill="#20BF6B"/></svg>